<svg width="27" height="27" viewBox="0 0 27 27" fill="none" xmlns="http://www.w3.org/2000/svg">
<path d="M13.5 0C6.04463 0 0 6.13927 0 13.7114C0 20.1363 4.356 25.5123 10.2285 27C10.1655 26.8149 10.125 26.6001 10.125 26.3339V23.9904C9.57713 23.9904 8.65912 23.9904 8.4285 23.9904C7.50487 23.9904 6.68362 23.587 6.28537 22.8375C5.84325 22.0045 5.76675 20.7305 4.671 19.9512C4.34587 19.6918 4.59337 19.3959 4.968 19.4359C5.65987 19.6347 6.23362 20.1169 6.77362 20.8322C7.31137 21.5486 7.5645 21.7108 8.56912 21.7108C9.05625 21.7108 9.78525 21.6823 10.4715 21.5726C10.8405 20.6208 11.4784 19.7444 12.258 19.3308C7.7625 18.8612 5.61713 16.5896 5.61713 13.5057C5.61713 12.178 6.174 10.8937 7.12013 9.81164C6.80963 8.73758 6.41925 6.54719 7.23938 5.71308C9.26213 5.71308 10.485 7.04537 10.7786 7.40529C11.7866 7.05451 12.8936 6.85569 14.0569 6.85569C15.2224 6.85569 16.3339 7.05451 17.3441 7.40757C17.6344 7.04994 18.8584 5.71308 20.8856 5.71308C21.7091 6.54833 21.3142 8.74786 21.0004 9.81964C21.9409 10.8994 22.4944 12.1803 22.4944 13.5057C22.4944 16.5873 20.3524 18.8577 15.8636 19.3296C17.0989 19.9843 18 21.824 18 23.2099V26.3339C18 26.4527 17.9741 26.5384 17.9606 26.6401C23.2211 24.7673 27 19.6941 27 13.7114C27 6.13927 20.9554 0 13.5 0Z" fill="black"/>
</svg>
