<svg width="27" height="27" viewBox="0 0 27 27" fill="none" xmlns="http://www.w3.org/2000/svg">
<path d="M24.5455 0H2.45455C1.09841 0 0 1.09841 0 2.45455V24.5455C0 25.9016 1.09841 27 2.45455 27H24.5455C25.9016 27 27 25.9016 27 24.5455V2.45455C27 1.09841 25.9016 0 24.5455 0ZM8.53446 22.0909H4.914V10.4416H8.53446V22.0909ZM6.68741 8.77623C5.52027 8.77623 4.5765 7.83 4.5765 6.66532C4.5765 5.50064 5.5215 4.55564 6.68741 4.55564C7.85086 4.55564 8.79709 5.50186 8.79709 6.66532C8.79709 7.83 7.85086 8.77623 6.68741 8.77623ZM22.0958 22.0909H18.4778V16.4258C18.4778 15.0746 18.4533 13.3368 16.5964 13.3368C14.7125 13.3368 14.4229 14.8083 14.4229 16.3276V22.0909H10.8049V10.4416H14.2781V12.0334H14.3272C14.8107 11.1179 15.9914 10.152 17.7525 10.152C21.4184 10.152 22.0958 12.5648 22.0958 15.7017V22.0909Z" fill="#0E76A8"/>
</svg>
