<svg width="40" height="23" viewBox="0 0 40 23" fill="none" xmlns="http://www.w3.org/2000/svg">
<path d="M6.68 11.53V22H0.83V0.699999H5.39L13.94 11.53V0.699999H19.79V22H15.14L6.68 11.53ZM36.3472 7.66C36.3472 7.66 36.1772 7.56 35.8372 7.36C35.4972 7.16 35.0472 6.94 34.4872 6.7C33.9272 6.44 33.3172 6.21 32.6572 6.01C31.9972 5.81 31.3472 5.71 30.7072 5.71C30.2072 5.71 29.7972 5.79 29.4772 5.95C29.1572 6.11 28.9972 6.38 28.9972 6.76C28.9972 7.12 29.1572 7.41 29.4772 7.63C29.7972 7.85 30.2472 8.05 30.8272 8.23C31.4272 8.41 32.1372 8.63 32.9572 8.89C34.2772 9.29 35.4172 9.75 36.3772 10.27C37.3372 10.79 38.0772 11.46 38.5972 12.28C39.1172 13.08 39.3772 14.15 39.3772 15.49C39.3772 16.77 39.1472 17.85 38.6872 18.73C38.2272 19.59 37.6072 20.28 36.8272 20.8C36.0472 21.32 35.1772 21.7 34.2172 21.94C33.2572 22.16 32.2772 22.27 31.2772 22.27C30.2572 22.27 29.1872 22.17 28.0672 21.97C26.9672 21.75 25.8972 21.46 24.8572 21.1C23.8172 20.72 22.8672 20.28 22.0072 19.78L24.5272 14.65C24.5272 14.65 24.7272 14.77 25.1272 15.01C25.5272 15.25 26.0572 15.52 26.7172 15.82C27.3772 16.12 28.1072 16.39 28.9072 16.63C29.7272 16.87 30.5472 16.99 31.3672 16.99C32.0072 16.99 32.4472 16.91 32.6872 16.75C32.9472 16.57 33.0772 16.34 33.0772 16.06C33.0772 15.64 32.8572 15.32 32.4172 15.1C31.9772 14.86 31.3972 14.64 30.6772 14.44C29.9772 14.22 29.1972 13.97 28.3372 13.69C27.0972 13.27 26.0772 12.8 25.2772 12.28C24.4772 11.74 23.8872 11.11 23.5072 10.39C23.1272 9.65 22.9372 8.76 22.9372 7.72C22.9372 6.14 23.3072 4.82 24.0472 3.76C24.7872 2.7 25.7572 1.9 26.9572 1.36C28.1772 0.799999 29.4872 0.519999 30.8872 0.519999C31.9272 0.519999 32.9272 0.649999 33.8872 0.91C34.8672 1.15 35.7772 1.45 36.6172 1.81C37.4772 2.17 38.2272 2.51 38.8672 2.83L36.3472 7.66Z" fill="#06223D"/>
</svg>
