<svg width="27" height="27" viewBox="0 0 27 27" fill="none" xmlns="http://www.w3.org/2000/svg">
<path d="M2.85823 0.741878C1.40954 1.60408 0 4.11232 0 5.71916C0 9.01123 2.42754 13.0479 7.59585 18.3387C13.1165 24.0215 17.8542 27 21.2605 27C24.0405 26.9608 27.8775 23.3552 26.8204 21.67C26.6246 21.3565 24.8627 20.1807 22.9442 19.0442L19.4986 17.0454L17.6192 18.1036C16.6012 18.6915 15.5441 19.1618 15.3092 19.1618C14.761 19.1618 9.63185 14.302 8.53554 12.7736L7.67416 11.5978L8.80962 9.5599L9.90593 7.48277L8.61385 5.20968C5.40323 -0.512242 5.16831 -0.669007 2.85823 0.741878Z" fill="#747A88"/>
</svg>
